<svg width="22" height="11" viewBox="0 0 22 11" fill="none" xmlns="http://www.w3.org/2000/svg">
<path d="M1.12935 10.145C0.849018 10.145 0.646018 10.1015 0.520352 10.0145C0.394685 9.93717 0.312518 9.83083 0.273852 9.6955C0.244852 9.56017 0.230352 9.41517 0.230352 9.2605V0.894C0.230352 0.729666 0.244852 0.579833 0.273852 0.444499C0.312518 0.309166 0.389852 0.202833 0.505852 0.125499C0.631518 0.0481663 0.834518 0.00949985 1.11485 0.00949985C1.38552 0.00949985 1.57885 0.0481663 1.69485 0.125499C1.82052 0.202833 1.89785 0.309166 1.92685 0.444499C1.96552 0.579833 1.98485 0.729666 1.98485 0.894V8.579H6.40735C6.55235 8.579 6.68285 8.5935 6.79885 8.6225C6.91485 8.64183 7.00669 8.7095 7.07435 8.8255C7.14202 8.93183 7.17585 9.10583 7.17585 9.3475C7.17585 9.58917 7.14202 9.768 7.07435 9.884C7.00669 9.99033 6.91485 10.058 6.79885 10.087C6.68285 10.1257 6.55235 10.145 6.40735 10.145H1.12935ZM9.12644 10.145C8.85577 10.145 8.65761 10.1015 8.53194 10.0145C8.40627 9.93717 8.32894 9.83083 8.29994 9.6955C8.27094 9.56017 8.25644 9.41033 8.25644 9.246V0.8795C8.25644 0.724833 8.27094 0.579833 8.29994 0.444499C8.33861 0.309166 8.41594 0.202833 8.53194 0.125499C8.65761 0.0481663 8.86061 0.00949985 9.14094 0.00949985C9.41161 0.00949985 9.60494 0.0481663 9.72094 0.125499C9.84661 0.202833 9.92394 0.309166 9.95294 0.444499C9.99161 0.579833 10.0109 0.729666 10.0109 0.894V9.2605C10.0109 9.42483 9.99161 9.57467 9.95294 9.71C9.92394 9.83567 9.84661 9.93717 9.72094 10.0145C9.59527 10.1015 9.39711 10.145 9.12644 10.145ZM12.4126 10.1305C12.1613 10.1305 11.9728 10.0918 11.8471 10.0145C11.7215 9.93717 11.6393 9.83083 11.6006 9.6955C11.5716 9.56017 11.5571 9.41033 11.5571 9.246V0.8795C11.5571 0.724833 11.5716 0.584666 11.6006 0.458999C11.6393 0.323666 11.7215 0.217333 11.8471 0.14C11.9728 0.0529999 12.171 0.00949985 12.4416 0.00949985C12.6446 0.00949985 12.7945 0.0239997 12.8911 0.0529993C12.9975 0.0723329 13.0796 0.106166 13.1376 0.1545C13.1956 0.193166 13.2536 0.246333 13.3116 0.313999L16.8496 5.2585H16.5161L20.0686 0.2995C20.1363 0.222166 20.204 0.164166 20.2716 0.125499C20.3393 0.0868325 20.4263 0.0578326 20.5326 0.0384995C20.639 0.0191664 20.7791 0.00949985 20.9531 0.00949985C21.2141 0.00949985 21.4075 0.0529999 21.5331 0.14C21.6588 0.217333 21.7361 0.323666 21.7651 0.458999C21.8038 0.594333 21.8231 0.744166 21.8231 0.9085V9.275C21.8231 9.42 21.8038 9.56017 21.7651 9.6955C21.7361 9.83083 21.6588 9.93717 21.5331 10.0145C21.4075 10.0918 21.2093 10.1305 20.9386 10.1305C20.6776 10.1305 20.4843 10.087 20.3586 10C20.233 9.92267 20.1508 9.81633 20.1121 9.681C20.0831 9.54567 20.0686 9.40067 20.0686 9.246V3.0255L17.4296 6.839C17.4006 6.87767 17.3571 6.93083 17.2991 6.9985C17.2411 7.0565 17.1638 7.10967 17.0671 7.158C16.9705 7.20633 16.84 7.2305 16.6756 7.2305C16.521 7.2305 16.3953 7.20633 16.2986 7.158C16.202 7.10967 16.1246 7.0565 16.0666 6.9985C16.0183 6.9405 15.97 6.8825 15.9216 6.8245L13.2971 3.0255V9.275C13.2971 9.42 13.2778 9.56017 13.2391 9.6955C13.2101 9.83083 13.1328 9.93717 13.0071 10.0145C12.8815 10.0918 12.6833 10.1305 12.4126 10.1305Z" fill="#141414"/>
</svg>
