<svg width="32" height="32" viewBox="0 0 32 32" fill="none" xmlns="http://www.w3.org/2000/svg">
<path d="M8 28H12M20 28H24M23.3333 8.66667V19.3333M4 8.26667L4 19.7333C4 21.2268 4 21.9735 4.29065 22.544C4.54631 23.0457 4.95426 23.4537 5.45603 23.7093C6.02646 24 6.77319 24 8.26667 24L23.7333 24C25.2268 24 25.9735 24 26.544 23.7093C27.0457 23.4537 27.4537 23.0457 27.7094 22.544C28 21.9735 28 21.2268 28 19.7333V8.26667C28 6.7732 28 6.02646 27.7094 5.45603C27.4537 4.95426 27.0457 4.54631 26.544 4.29065C25.9735 4 25.2268 4 23.7333 4L8.26667 4C6.77319 4 6.02646 4 5.45603 4.29065C4.95426 4.54631 4.54631 4.95426 4.29065 5.45603C4 6.02646 4 6.77319 4 8.26667ZM15.3333 14C15.3333 15.8409 13.8409 17.3333 12 17.3333C10.1591 17.3333 8.66667 15.8409 8.66667 14C8.66667 12.1591 10.1591 10.6667 12 10.6667C13.8409 10.6667 15.3333 12.1591 15.3333 14Z" stroke="#141414" stroke-width="1.6" stroke-linecap="round" stroke-linejoin="round"/>
</svg>
