<svg width="16" height="15" viewBox="0 0 16 15" fill="none" xmlns="http://www.w3.org/2000/svg">
<path d="M15.1938 1.56875C14.8938 1.45 14.5531 1.52813 14.3344 1.7625L11.2656 5.68437L8.67188 0.65C8.53125 0.4125 8.27812 0.265625 8 0.265625C7.72188 0.265625 7.46562 0.4125 7.32812 0.65L4.73438 5.68437L1.66562 1.76562C1.44687 1.53125 1.10625 1.45312 0.80625 1.57187C0.509375 1.6875 0.3125 1.975 0.3125 2.29688V12.7031C0.3125 13.8219 1.225 14.7344 2.34375 14.7344H13.6562C14.775 14.7344 15.6875 13.8219 15.6875 12.7031V2.29688C15.6875 1.975 15.4906 1.6875 15.1938 1.56875Z" fill="#FFE400"/>
</svg>
