<svg width="78" height="78" viewBox="0 0 78 78" fill="none" xmlns="http://www.w3.org/2000/svg">
<g clip-path="url(#clip0_5397_186)">
<path d="M61.3502 46.2338C63.0778 45.9428 64.0779 43.922 63.5088 42.3287C62.8678 40.5326 60.6448 39.8106 58.9835 40.6137C57.3222 41.4187 56.5929 43.4413 57.0644 45.1728C57.5358 46.9006 59.0203 48.2122 60.7111 48.6985C64.1866 49.6987 67.6326 47.4256 68.6032 44.0639C69.6107 40.5732 67.9015 37.042 65.1075 34.9402C62.4682 32.9544 58.8877 32.4184 55.718 33.2381C52.517 34.0652 49.8243 36.377 48.4484 39.3758C47.0763 42.3673 46.8811 45.7843 48.1445 48.8495C49.3822 51.8521 51.76 54.3628 54.7529 55.6578C57.9981 57.0614 61.7425 57.7006 65.2382 57.0633C68.268 56.5125 71.167 55.0554 73.3937 52.9242C75.4528 50.9532 76.9189 48.3024 77.5377 45.5191C78.1382 42.8168 77.9816 39.9819 77.9816 37.2354C77.9816 31.7405 77.9816 26.2457 77.9816 20.7508V1.39081C77.9816 -0.464142 75.0992 -0.467827 75.0992 1.39081V34.3654C75.0992 36.3641 75.1139 38.3645 75.0992 40.365C75.0826 42.5847 75.0255 44.3439 74.2759 46.3941C73.46 48.6266 71.9221 50.699 69.8832 52.086C67.7523 53.5376 65.159 54.4549 62.5658 54.4475C59.8013 54.4402 56.6794 53.7236 54.3624 52.1689C52.237 50.7413 50.6936 48.4074 50.2644 45.8783C49.8537 43.4578 50.5794 40.8237 52.086 38.8969C55.3865 34.6749 62.7684 34.5754 65.4187 39.5858C66.4999 41.6305 66.1241 44.762 63.7795 45.7715C62.7592 46.2099 61.4312 46.1657 60.5453 45.4491C59.9928 45.0015 59.2984 43.6236 60.2599 43.1926C60.4514 43.1078 60.6061 43.1502 60.7885 43.2755C60.7719 43.2644 60.7645 43.3952 60.7977 43.3399C60.6522 43.572 60.8271 43.4136 60.5859 43.4541C59.8178 43.5831 59.3887 44.5317 59.5784 45.228C59.8013 46.0422 60.5803 46.3646 61.352 46.2357L61.3502 46.2338Z" fill="white"/>
<path d="M61.2545 29.5687C62.3964 29.3237 63.1405 28.1945 63.0576 27.058C62.9655 25.798 61.8144 24.8659 60.5767 24.8604C59.3814 24.8549 58.3536 25.6967 57.9982 26.8185C57.6298 27.9771 58.0571 29.2555 58.9043 30.0918C60.5362 31.7036 63.4075 31.501 64.9178 29.8266C66.4428 28.1337 66.5846 25.6175 65.4409 23.6759C63.1202 19.7395 57.2394 19.3729 54.1912 22.6389C51.2001 25.844 51.4819 31.0018 54.81 33.8625C58.0405 36.6385 63.1534 36.9756 66.8093 34.8885C68.559 33.8901 69.9791 32.3557 70.7784 30.5044C71.458 28.9313 71.6551 27.3343 71.6717 25.6304C71.7103 21.891 71.6717 18.1479 71.6717 14.4086C71.6717 10.3708 71.7545 6.32194 71.6717 2.28599C71.6717 2.21231 71.6717 2.13679 71.6717 2.06311C71.6717 0.208157 68.7893 0.204472 68.7893 2.06311V21.2739C68.7893 22.0494 68.7893 22.8268 68.7893 23.6023C68.7893 26.2714 69.0195 28.7232 67.2348 30.8489C66.3065 31.9523 65.0412 32.7186 63.658 33.1054C62.1072 33.5402 60.5656 33.3688 59.0388 32.9157C56.2135 32.0776 54.2243 29.3439 55.2244 26.3782C55.7346 24.8641 56.9594 23.7146 58.5286 23.3794C60.037 23.0589 61.737 23.5267 62.7113 24.7646C63.4867 25.7501 63.6967 27.7377 62.2288 28.2424C61.796 28.3916 60.9653 28.3787 60.7774 27.839C60.7664 27.8095 60.7259 27.7708 60.724 27.7671C60.3336 27.1077 61.2618 27.9366 60.6761 27.7156C60.2931 27.57 60.6338 27.9053 60.3262 27.6161C60.1199 27.4227 60.1586 26.8572 60.4864 26.7872C58.6741 27.174 59.4403 29.9555 61.2526 29.5668L61.2545 29.5687Z" fill="white"/>
<path d="M43.4479 60.5926C43.4258 60.7252 43.3742 60.9058 43.2619 60.7971C43.098 60.6387 43.1127 60.3734 43.2398 60.1818C43.831 59.2829 45.1258 60.0879 45.5586 60.7216C46.1609 61.6021 46.1793 62.8215 45.7649 63.7867C45.2713 64.9362 44.1625 65.6362 42.9838 65.9125C40.396 66.5203 37.9115 64.7465 36.7088 62.5618C35.4582 60.2905 35.4177 57.3285 36.5467 54.9983C37.6794 52.6607 39.8693 51.0526 42.3668 50.4318C44.879 49.8074 47.4409 50.3545 49.5755 51.7857C51.8631 53.3202 53.1136 55.6541 53.8098 58.255C54.5521 61.0292 54.6663 63.7665 53.7638 66.513C52.9829 68.8948 51.4947 71.1329 49.4706 72.636C48.5147 73.347 47.4464 73.8996 46.3911 74.2846C45.927 74.4541 45.4536 74.5996 44.9729 74.7157C44.7519 74.7691 44.529 74.817 44.3043 74.8575C44.1791 74.8814 44.0538 74.9017 43.9268 74.922C43.8255 74.9367 43.8255 74.9385 43.9268 74.9256C43.8218 74.9385 43.7186 74.9514 43.6137 74.9625C41.0094 75.248 38.3627 75.108 35.7455 75.108H17.381C12.1447 75.108 6.90117 75.0288 1.66494 75.108C1.5747 75.108 1.48629 75.108 1.39604 75.108C-0.458649 75.108 -0.462334 77.9908 1.39604 77.9908H36.8469C38.5395 77.9908 40.234 78.0221 41.9247 77.9595C44.4738 77.8674 46.8607 77.3572 49.1519 76.2096C51.957 74.8041 54.2371 72.3578 55.6129 69.5542C57.1472 66.4282 57.6039 63.0849 57.0532 59.6569C56.5191 56.3283 55.2906 53.0568 52.7968 50.7008C50.4375 48.4719 47.2236 47.1217 43.9544 47.3003C40.7681 47.4753 37.5818 48.9048 35.5098 51.3676C33.2978 53.9962 32.4708 57.4482 33.0731 60.8137C33.679 64.1975 36.0347 67.2074 39.2707 68.4232C42.4239 69.6076 46.5274 68.5282 48.1629 65.4243C49.7616 62.3886 48.6768 57.824 44.9582 57.0209C43.1385 56.6267 41.1199 57.5311 40.4642 59.3345C39.873 60.9629 40.7073 63.0057 42.4054 63.5454C43.9857 64.0483 45.9398 63.0536 46.2272 61.3552C46.3561 60.5889 46.0246 59.8024 45.2197 59.5813C44.529 59.3916 43.5768 59.8171 43.4461 60.5889L43.4479 60.5926Z" fill="white"/>
<path d="M26.7852 60.4968C26.8184 60.3439 27.0818 60.2132 27.2199 60.2021C27.7596 60.1597 27.614 60.425 27.7117 60.6866C27.8222 60.9813 27.2457 60.5337 27.7559 60.751C28.2384 60.9555 28.3968 61.5229 28.3066 62.0128C28.0837 63.2341 26.5771 63.5602 25.5697 63.1789C22.6854 62.0847 22.713 58.0045 24.7501 56.1643C26.9179 54.2062 30.2975 54.7846 31.9809 57.0596C32.8816 58.2753 33.2868 59.9811 33.3586 61.4713C33.4323 63.0112 32.9589 64.5254 32.1209 65.8093C31.3897 66.9293 30.2368 67.8282 29.0746 68.2777C27.8664 68.7456 27.0081 68.7787 25.7299 68.7953C24.529 68.81 23.3264 68.7971 22.1255 68.7971H2.06284C0.208149 68.7971 0.204468 71.6799 2.06284 71.6799H12.4745C16.1747 71.6799 19.873 71.6799 23.5731 71.6799C25.1147 71.6799 26.6637 71.7297 28.1924 71.4939C29.9513 71.2231 31.6328 70.385 32.9608 69.2116C36.276 66.279 36.9206 61.5505 35.4454 57.533C33.9682 53.5136 29.4706 50.955 25.3118 52.5557C23.249 53.3497 21.6319 54.8509 20.8473 56.9361C20.0958 58.9311 20.2966 61.335 21.3962 63.166C22.5123 65.0228 24.6303 66.4135 26.8552 66.1961C29.1759 65.9696 31.0564 64.2933 31.2 61.906C31.3363 59.6237 29.2146 57.2401 26.8184 58.0008C25.6949 58.3582 24.855 59.3824 24.8606 60.5797C24.8661 61.8378 25.8441 63.0297 27.1407 63.0702C28.2513 63.1052 29.3306 62.372 29.5682 61.2576C29.955 59.4487 27.1775 58.675 26.7889 60.4913L26.7852 60.4968Z" fill="white"/>
<path d="M53.0086 53.3883C53.0086 53.3883 63.9875 63.2728 60.4255 76.3643C60.4255 76.3643 67.0228 73.638 64.6137 66.7911L65.1423 68.0087C67.3598 74.3564 75.0069 74.3417 75.0069 74.3417C74.6146 64.9048 67.5053 63.9009 67.5053 63.9009C74.3494 66.3177 77.0808 59.7213 77.0808 59.7213C63.3005 63.8235 54.1136 52.2849 54.1136 52.2849L53.0086 53.3901V53.3883Z" fill="white"/>
</g>
<defs>
<clipPath id="clip0_5397_186">
<rect width="78" height="78" fill="white" transform="matrix(-1 0 0 -1 78 78)"/>
</clipPath>
</defs>
</svg>
