<svg width="78" height="78" viewBox="0 0 78 78" fill="none" xmlns="http://www.w3.org/2000/svg">
<g clip-path="url(#clip0_5397_176)">
<path d="M61.3502 31.7663C63.0778 32.0573 64.0779 34.078 63.5088 35.6714C62.8678 37.4674 60.6448 38.1895 58.9835 37.3864C57.3222 36.5814 56.5929 34.5588 57.0644 32.8273C57.5358 31.0994 59.0203 29.7879 60.7111 29.3016C64.1866 28.3013 67.6326 30.5744 68.6032 33.9362C69.6107 37.4269 67.9015 40.9581 65.1075 43.0599C62.4682 45.0456 58.8877 45.5817 55.718 44.762C52.517 43.9349 49.8243 41.6231 48.4484 38.6242C47.0763 35.6327 46.8811 32.2157 48.1445 29.1505C49.3822 26.148 51.76 23.6373 54.7529 22.3423C57.9981 20.9387 61.7425 20.2995 65.2382 20.9368C68.268 21.4876 71.167 22.9446 73.3937 25.0759C75.4528 27.0469 76.9189 29.6976 77.5377 32.481C78.1382 35.1833 77.9816 38.0182 77.9816 40.7647C77.9816 46.2595 77.9816 51.7544 77.9816 57.2492V76.6093C77.9816 78.4642 75.0992 78.4679 75.0992 76.6093V43.6346C75.0992 41.636 75.1139 39.6355 75.0992 37.635C75.0826 35.4154 75.0255 33.6562 74.2759 31.606C73.46 29.3734 71.9221 27.3011 69.8832 25.914C67.7523 24.4625 65.159 23.5452 62.5658 23.5525C59.8013 23.5599 56.6794 24.2765 54.3624 25.8311C52.237 27.2587 50.6936 29.5926 50.2644 32.1218C49.8537 34.5422 50.5794 37.1764 52.086 39.1032C55.3865 43.3252 62.7684 43.4246 65.4187 38.4142C66.4999 36.3695 66.1241 33.2381 63.7795 32.2286C62.7592 31.7902 61.4312 31.8344 60.5453 32.551C59.9928 32.9986 59.2984 34.3764 60.2599 34.8075C60.4514 34.8922 60.6061 34.8499 60.7885 34.7246C60.7719 34.7356 60.7645 34.6049 60.7977 34.6601C60.6522 34.428 60.8271 34.5864 60.5859 34.5459C59.8178 34.417 59.3887 33.4683 59.5784 32.772C59.8013 31.9578 60.5803 31.6355 61.352 31.7644L61.3502 31.7663Z" fill="white"/>
<path d="M61.2545 48.4313C62.3964 48.6763 63.1405 49.8055 63.0576 50.942C62.9655 52.202 61.8144 53.1341 60.5767 53.1396C59.3814 53.1451 58.3536 52.3033 57.9982 51.1815C57.6298 50.0229 58.0571 48.7445 58.9043 47.9082C60.5362 46.2964 63.4075 46.499 64.9178 48.1734C66.4428 49.8663 66.5846 52.3825 65.4409 54.3241C63.1202 58.2605 57.2394 58.6271 54.1912 55.3611C51.2001 52.156 51.4819 46.9982 54.81 44.1375C58.0405 41.3615 63.1534 41.0244 66.8093 43.1115C68.559 44.1099 69.9791 45.6443 70.7784 47.4956C71.458 49.0687 71.6551 50.6657 71.6717 52.3696C71.7103 56.109 71.6717 59.8521 71.6717 63.5914C71.6717 67.6292 71.7545 71.6781 71.6717 75.714C71.6717 75.7877 71.6717 75.8632 71.6717 75.9369C71.6717 77.7918 68.7893 77.7955 68.7893 75.9369V56.7261C68.7893 55.9506 68.7893 55.1732 68.7893 54.3977C68.7893 51.7286 69.0195 49.2768 67.2348 47.1511C66.3065 46.0477 65.0412 45.2814 63.658 44.8946C62.1072 44.4598 60.5656 44.6312 59.0388 45.0843C56.2135 45.9224 54.2243 48.6561 55.2244 51.6218C55.7346 53.1359 56.9594 54.2854 58.5286 54.6206C60.037 54.9411 61.737 54.4733 62.7113 53.2354C63.4867 52.2499 63.6967 50.2623 62.2288 49.7576C61.796 49.6084 60.9653 49.6213 60.7774 50.161C60.7664 50.1905 60.7259 50.2292 60.724 50.2329C60.3336 50.8923 61.2618 50.0634 60.6761 50.2844C60.2931 50.43 60.6338 50.0947 60.3262 50.3839C60.1199 50.5773 60.1586 51.1428 60.4864 51.2128C58.6741 50.826 59.4403 48.0445 61.2526 48.4332L61.2545 48.4313Z" fill="white"/>
<path d="M43.4479 17.4074C43.4258 17.2748 43.3742 17.0943 43.2619 17.203C43.098 17.3614 43.1127 17.6267 43.2398 17.8182C43.831 18.7171 45.1258 17.9122 45.5586 17.2785C46.1609 16.398 46.1793 15.1786 45.7649 14.2133C45.2713 13.0639 44.1625 12.3639 42.9838 12.0876C40.396 11.4797 37.9115 13.2536 36.7088 15.4383C35.4582 17.7095 35.4177 20.6716 36.5467 23.0018C37.6794 25.3393 39.8693 26.9475 42.3668 27.5682C44.879 28.1927 47.4409 27.6456 49.5755 26.2143C51.8631 24.6799 53.1136 22.346 53.8098 19.745C54.5521 16.9709 54.6663 14.2336 53.7638 11.4871C52.9829 9.1053 51.4947 6.86721 49.4706 5.36409C48.5147 4.65305 47.4464 4.10044 46.3911 3.71545C45.927 3.54598 45.4536 3.40046 44.9729 3.28441C44.7519 3.23099 44.529 3.18309 44.3043 3.14257C44.1791 3.11862 44.0538 3.09836 43.9268 3.0781C43.8255 3.06336 43.8255 3.06152 43.9268 3.07441C43.8218 3.06152 43.7186 3.04862 43.6137 3.03757C41.0094 2.75205 38.3627 2.89205 35.7455 2.89205H17.381C12.1447 2.89205 6.90117 2.97126 1.66494 2.89205C1.5747 2.89205 1.48629 2.89205 1.39604 2.89205C-0.458649 2.89205 -0.462334 0.00923255 1.39604 0.00923255H36.8469C38.5395 0.00923255 40.234 -0.0220824 41.9247 0.0405475C44.4738 0.13265 46.8607 0.6429 49.1519 1.7905C51.957 3.19599 54.2371 5.64224 55.6129 8.44585C57.1472 11.5718 57.6039 14.9151 57.0532 18.3432C56.5191 21.6718 55.2906 24.9433 52.7968 27.2993C50.4375 29.5282 47.2236 30.8784 43.9544 30.6997C40.7681 30.5247 37.5818 29.0953 35.5098 26.6325C33.2978 24.0038 32.4708 20.5518 33.0731 17.1864C33.679 13.8025 36.0347 10.7926 39.2707 9.57687C42.4239 8.39243 46.5274 9.47187 48.1629 12.5757C49.7616 15.6114 48.6768 20.1761 44.9582 20.9792C43.1385 21.3734 41.1199 20.4689 40.4642 18.6656C39.873 17.0372 40.7073 14.9944 42.4054 14.4546C43.9857 13.9518 45.9398 14.9465 46.2272 16.6448C46.3561 17.4111 46.0246 18.1977 45.2197 18.4187C44.529 18.6085 43.5768 18.183 43.4461 17.4111L43.4479 17.4074Z" fill="white"/>
<path d="M26.7852 17.5032C26.8184 17.6561 27.0818 17.7869 27.2199 17.798C27.7596 17.8403 27.614 17.5751 27.7117 17.3135C27.8222 17.0188 27.2457 17.4664 27.7559 17.249C28.2384 17.0446 28.3968 16.4772 28.3066 15.9872C28.0837 14.7659 26.5771 14.4399 25.5697 14.8212C22.6854 15.9154 22.713 19.9955 24.7501 21.8357C26.9179 23.7939 30.2975 23.2154 31.9809 20.9405C32.8816 19.7248 33.2868 18.019 33.3586 16.5288C33.4323 14.9888 32.9589 13.4747 32.1209 12.1907C31.3897 11.0708 30.2368 10.1719 29.0746 9.72239C27.8664 9.25451 27.0081 9.22135 25.7299 9.20477C24.529 9.19004 23.3264 9.20293 22.1255 9.20293H2.06284C0.208149 9.20293 0.204468 6.32011 2.06284 6.32011H12.4745C16.1747 6.32011 19.873 6.32011 23.5731 6.32011C25.1147 6.32011 26.6637 6.27038 28.1924 6.50616C29.9513 6.77694 31.6328 7.61508 32.9608 8.78847C36.276 11.721 36.9206 16.4496 35.4454 20.4671C33.9682 24.4865 29.4706 27.0451 25.3118 25.4443C23.249 24.6504 21.6319 23.1491 20.8473 21.0639C20.0958 19.069 20.2966 16.6651 21.3962 14.8341C22.5123 12.9773 24.6303 11.5866 26.8552 11.8039C29.1759 12.0305 31.0564 13.7068 31.2 16.0941C31.3363 18.3764 29.2146 20.76 26.8184 19.9992C25.6949 19.6419 24.855 18.6177 24.8606 17.4203C24.8661 16.1622 25.8441 14.9704 27.1407 14.9299C28.2513 14.8949 29.3306 15.628 29.5682 16.7425C29.955 18.5514 27.1775 19.325 26.7889 17.5088L26.7852 17.5032Z" fill="white"/>
<path d="M53.0086 24.6117C53.0086 24.6117 63.9875 14.7272 60.4255 1.63574C60.4255 1.63574 67.0228 4.36198 64.6137 11.2089L65.1423 9.99131C67.3598 3.64358 75.0069 3.65832 75.0069 3.65832C74.6146 13.0952 67.5053 14.0991 67.5053 14.0991C74.3494 11.6823 77.0808 18.2787 77.0808 18.2787C63.3005 14.1765 54.1136 25.7151 54.1136 25.7151L53.0086 24.6099V24.6117Z" fill="white"/>
</g>
<defs>
<clipPath id="clip0_5397_176">
<rect width="78" height="78" fill="white" transform="matrix(-1 0 0 1 78 0)"/>
</clipPath>
</defs>
</svg>
