<svg width="78" height="78" viewBox="0 0 78 78" fill="none" xmlns="http://www.w3.org/2000/svg">
<g clip-path="url(#clip0_5397_156)">
<path d="M16.6498 31.7663C14.9222 32.0573 13.9221 34.078 14.4912 35.6714C15.1322 37.4674 17.3552 38.1895 19.0165 37.3864C20.6778 36.5814 21.4071 34.5588 20.9356 32.8273C20.4642 31.0994 18.9797 29.7879 17.2889 29.3016C13.8134 28.3013 10.3674 30.5744 9.39681 33.9362C8.38935 37.4269 10.0985 40.9581 12.8925 43.0599C15.5318 45.0456 19.1123 45.5817 22.282 44.762C25.483 43.9349 28.1757 41.6231 29.5516 38.6242C30.9237 35.6327 31.1189 32.2157 29.8555 29.1505C28.6178 26.148 26.24 23.6373 23.2471 22.3423C20.0019 20.9387 16.2575 20.2995 12.7618 20.9368C9.73201 21.4876 6.83303 22.9446 4.6063 25.0759C2.54717 27.0469 1.08111 29.6976 0.462263 32.481C-0.138162 35.1833 0.0183905 38.0182 0.0183905 40.7647C0.0183905 46.2595 0.0183905 51.7544 0.0183905 57.2492V76.6093C0.0183905 78.4642 2.9008 78.4679 2.9008 76.6093V43.6346C2.9008 41.636 2.88606 39.6355 2.9008 37.635C2.91737 35.4154 2.97447 33.6562 3.72408 31.606C4.54 29.3734 6.07789 27.3011 8.11676 25.914C10.2477 24.4625 12.841 23.5452 15.4342 23.5525C18.1987 23.5599 21.3206 24.2765 23.6376 25.8311C25.763 27.2587 27.3064 29.5926 27.7356 32.1218C28.1463 34.5422 27.4206 37.1764 25.914 39.1032C22.6135 43.3252 15.2316 43.4246 12.5813 38.4142C11.5001 36.3695 11.8759 33.2381 14.2205 32.2286C15.2408 31.7902 16.5688 31.8344 17.4547 32.551C18.0072 32.9986 18.7016 34.3764 17.7401 34.8075C17.5486 34.8922 17.3939 34.8499 17.2115 34.7246C17.2281 34.7356 17.2355 34.6049 17.2023 34.6601C17.3478 34.428 17.1729 34.5864 17.4141 34.5459C18.1822 34.417 18.6113 33.4683 18.4216 32.772C18.1987 31.9578 17.4197 31.6355 16.648 31.7644L16.6498 31.7663Z" fill="white"/>
<path d="M16.7455 48.4313C15.6036 48.6763 14.8595 49.8055 14.9424 50.942C15.0345 52.202 16.1856 53.1341 17.4233 53.1396C18.6186 53.1451 19.6464 52.3033 20.0018 51.1815C20.3702 50.0229 19.9429 48.7445 19.0957 47.9082C17.4638 46.2964 14.5925 46.499 13.0822 48.1734C11.5572 49.8663 11.4154 52.3825 12.5591 54.3241C14.8798 58.2605 20.7606 58.6271 23.8088 55.3611C26.7999 52.156 26.5181 46.9982 23.19 44.1375C19.9595 41.3615 14.8466 41.0244 11.1907 43.1115C9.44097 44.1099 8.02095 45.6443 7.22161 47.4956C6.54199 49.0687 6.34492 50.6657 6.32834 52.3696C6.28966 56.109 6.32834 59.8521 6.32834 63.5914C6.32834 67.6292 6.24546 71.6781 6.32834 75.714C6.32834 75.7877 6.32834 75.8632 6.32834 75.9369C6.32834 77.7918 9.21075 77.7955 9.21075 75.9369V56.7261C9.21075 55.9506 9.21075 55.1732 9.21075 54.3977C9.21075 51.7286 8.98052 49.2768 10.7652 47.1511C11.6935 46.0477 12.9588 45.2814 14.342 44.8946C15.8928 44.4598 17.4344 44.6312 18.9612 45.0843C21.7865 45.9224 23.7757 48.6561 22.7756 51.6218C22.2654 53.1359 21.0406 54.2854 19.4714 54.6206C17.963 54.9411 16.263 54.4733 15.2887 53.2354C14.5133 52.2499 14.3033 50.2623 15.7712 49.7576C16.204 49.6084 17.0347 49.6213 17.2226 50.161C17.2336 50.1905 17.2741 50.2292 17.276 50.2329C17.6664 50.8923 16.7382 50.0634 17.3239 50.2844C17.7069 50.43 17.3662 50.0947 17.6738 50.3839C17.8801 50.5773 17.8414 51.1428 17.5136 51.2128C19.3259 50.826 18.5597 48.0445 16.7474 48.4332L16.7455 48.4313Z" fill="white"/>
<path d="M34.5521 17.4074C34.5742 17.2748 34.6258 17.0942 34.7381 17.2029C34.902 17.3613 34.8873 17.6266 34.7602 17.8182C34.169 18.7171 32.8742 17.9121 32.4414 17.2784C31.8391 16.3979 31.8207 15.1785 32.2351 14.2133C32.7287 13.0638 33.8375 12.3638 35.0162 12.0875C37.604 11.4797 40.0885 13.2535 41.2912 15.4382C42.5418 17.7095 42.5823 20.6715 41.4533 23.0017C40.3206 25.3393 38.1307 26.9474 35.6332 27.5682C33.121 28.1926 30.5591 27.6455 28.4245 26.2143C26.1369 24.6798 24.8864 22.3459 24.1902 19.745C23.4479 16.9708 23.3337 14.2335 24.2362 11.487C25.0171 9.10524 26.5053 6.86714 28.5294 5.36403C29.4853 4.65299 30.5536 4.10038 31.6089 3.71539C32.073 3.54592 32.5464 3.4004 33.0271 3.28435C33.2481 3.23093 33.471 3.18303 33.6957 3.14251C33.8209 3.11856 33.9462 3.0983 34.0732 3.07804C34.1745 3.0633 34.1745 3.06146 34.0732 3.07435C34.1782 3.06146 34.2814 3.04856 34.3863 3.03751C36.9906 2.75199 39.6373 2.89199 42.2545 2.89199H60.619C65.8553 2.89199 71.0988 2.9712 76.3351 2.89199C76.4253 2.89199 76.5137 2.89199 76.604 2.89199C78.4586 2.89199 78.4623 0.00917151 76.604 0.00917151H41.1531C39.4605 0.00917151 37.766 -0.0221434 36.0753 0.0404865C33.5262 0.132589 31.1393 0.642839 28.8481 1.79044C26.043 3.19593 23.7629 5.64218 22.3871 8.44579C20.8528 11.5718 20.3961 14.9151 20.9468 18.3431C21.4809 21.6717 22.7094 24.9432 25.2032 27.2992C27.5625 29.5281 30.7764 30.8783 34.0456 30.6997C37.2319 30.5247 40.4182 29.0952 42.4902 26.6324C44.7022 24.0038 45.5292 20.5518 44.9269 17.1863C44.321 13.8025 41.9653 10.7926 38.7293 9.57681C35.5761 8.39237 31.4726 9.47181 29.8371 12.5757C28.2384 15.6114 29.3232 20.176 33.0418 20.9791C34.8615 21.3733 36.8801 20.4689 37.5358 18.6655C38.127 17.0371 37.2927 14.9943 35.5946 14.4546C34.0143 13.9517 32.0602 14.9464 31.7728 16.6448C31.6439 17.4111 31.9754 18.1976 32.7803 18.4187C33.471 18.6084 34.4232 18.1829 34.5539 17.4111L34.5521 17.4074Z" fill="white"/>
<path d="M51.2148 17.5032C51.1816 17.6561 50.9182 17.7868 50.7801 17.7979C50.2404 17.8403 50.386 17.575 50.2883 17.3134C50.1778 17.0187 50.7543 17.4663 50.2441 17.249C49.7616 17.0445 49.6032 16.4771 49.6934 15.9872C49.9163 14.7659 51.4229 14.4398 52.4303 14.8211C55.3146 15.9153 55.287 19.9955 53.2499 21.8357C51.0821 23.7938 47.7025 23.2154 46.0191 20.9404C45.1184 19.7247 44.7132 18.0189 44.6414 16.5287C44.5677 14.9888 45.0411 13.4746 45.8791 12.1907C46.6103 11.0707 47.7632 10.1718 48.9254 9.72233C50.1336 9.25445 50.9919 9.22129 52.2701 9.20471C53.471 9.18998 54.6736 9.20287 55.8745 9.20287H75.9372C77.7919 9.20287 77.7955 6.32005 75.9372 6.32005H65.5255C61.8253 6.32005 58.127 6.32005 54.4269 6.32005C52.8853 6.32005 51.3363 6.27032 49.8076 6.5061C48.0487 6.77688 46.3672 7.61502 45.0392 8.78841C41.724 11.721 41.0794 16.4495 42.5546 20.467C44.0318 24.4864 48.5294 27.045 52.6882 25.4443C54.751 24.6503 56.3681 23.1491 57.1527 21.0639C57.9042 19.0689 57.7034 16.665 56.6038 14.834C55.4877 12.9772 53.3697 11.5865 51.1448 11.8039C48.8241 12.0304 46.9436 13.7067 46.8 16.094C46.6637 18.3763 48.7854 20.7599 51.1816 19.9992C52.3051 19.6418 53.145 18.6176 53.1394 17.4203C53.1339 16.1622 52.1559 14.9703 50.8593 14.9298C49.7487 14.8948 48.6694 15.628 48.4318 16.7424C48.045 18.5513 50.8225 19.325 51.2111 17.5087L51.2148 17.5032Z" fill="white"/>
<path d="M24.9914 24.6117C24.9914 24.6117 14.0125 14.7272 17.5745 1.63574C17.5745 1.63574 10.9772 4.36198 13.3863 11.2089L12.8577 9.99131C10.6402 3.64358 2.99305 3.65832 2.99305 3.65832C3.38535 13.0952 10.4947 14.0991 10.4947 14.0991C3.65057 11.6823 0.919189 18.2787 0.919189 18.2787C14.6995 14.1765 23.8864 25.7151 23.8864 25.7151L24.9914 24.6099V24.6117Z" fill="white"/>
</g>
<defs>
<clipPath id="clip0_5397_156">
<rect width="78" height="78" fill="white"/>
</clipPath>
</defs>
</svg>
