<svg width="78" height="78" viewBox="0 0 78 78" fill="none" xmlns="http://www.w3.org/2000/svg">
<g clip-path="url(#clip0_5397_166)">
<path d="M16.6498 46.2338C14.9222 45.9428 13.9221 43.922 14.4912 42.3287C15.1322 40.5326 17.3552 39.8106 19.0165 40.6137C20.6778 41.4187 21.4071 43.4413 20.9356 45.1728C20.4642 46.9006 18.9797 48.2122 17.2889 48.6985C13.8134 49.6987 10.3674 47.4256 9.39681 44.0639C8.38935 40.5732 10.0985 37.042 12.8925 34.9402C15.5318 32.9544 19.1123 32.4184 22.282 33.2381C25.483 34.0652 28.1757 36.377 29.5516 39.3758C30.9237 42.3673 31.1189 45.7843 29.8555 48.8495C28.6178 51.8521 26.24 54.3628 23.2471 55.6578C20.0019 57.0614 16.2575 57.7006 12.7618 57.0633C9.73201 56.5125 6.83303 55.0554 4.6063 52.9242C2.54717 50.9532 1.08111 48.3024 0.462263 45.5191C-0.138162 42.8168 0.0183905 39.9819 0.0183905 37.2354C0.0183905 31.7405 0.0183905 26.2457 0.0183905 20.7508V1.39081C0.0183905 -0.464142 2.9008 -0.467827 2.9008 1.39081V34.3654C2.9008 36.3641 2.88606 38.3645 2.9008 40.365C2.91737 42.5847 2.97447 44.3439 3.72408 46.3941C4.54 48.6266 6.07789 50.699 8.11676 52.086C10.2477 53.5376 12.841 54.4549 15.4342 54.4475C18.1987 54.4402 21.3206 53.7236 23.6376 52.1689C25.763 50.7413 27.3064 48.4074 27.7356 45.8783C28.1463 43.4578 27.4206 40.8237 25.914 38.8969C22.6135 34.6749 15.2316 34.5754 12.5813 39.5858C11.5001 41.6305 11.8759 44.762 14.2205 45.7715C15.2408 46.2099 16.5688 46.1657 17.4547 45.4491C18.0072 45.0015 18.7016 43.6236 17.7401 43.1926C17.5486 43.1078 17.3939 43.1502 17.2115 43.2755C17.2281 43.2644 17.2355 43.3952 17.2023 43.3399C17.3478 43.572 17.1729 43.4136 17.4141 43.4541C18.1822 43.5831 18.6113 44.5317 18.4216 45.228C18.1987 46.0422 17.4197 46.3646 16.648 46.2357L16.6498 46.2338Z" fill="white"/>
<path d="M16.7455 29.5687C15.6036 29.3237 14.8595 28.1945 14.9424 27.058C15.0345 25.798 16.1856 24.8659 17.4233 24.8604C18.6186 24.8549 19.6464 25.6967 20.0018 26.8185C20.3702 27.9771 19.9429 29.2555 19.0957 30.0918C17.4638 31.7036 14.5925 31.501 13.0822 29.8266C11.5572 28.1337 11.4154 25.6175 12.5591 23.6759C14.8798 19.7395 20.7606 19.3729 23.8088 22.6389C26.7999 25.844 26.5181 31.0018 23.19 33.8625C19.9595 36.6385 14.8466 36.9756 11.1907 34.8885C9.44097 33.8901 8.02095 32.3557 7.22161 30.5044C6.54199 28.9313 6.34492 27.3343 6.32834 25.6304C6.28966 21.891 6.32834 18.1479 6.32834 14.4086C6.32834 10.3708 6.24546 6.32194 6.32834 2.28599C6.32834 2.21231 6.32834 2.13679 6.32834 2.06311C6.32834 0.208157 9.21075 0.204472 9.21075 2.06311V21.2739C9.21075 22.0494 9.21075 22.8268 9.21075 23.6023C9.21075 26.2714 8.98052 28.7232 10.7652 30.8489C11.6935 31.9523 12.9588 32.7186 14.342 33.1054C15.8928 33.5402 17.4344 33.3688 18.9612 32.9157C21.7865 32.0776 23.7757 29.3439 22.7756 26.3782C22.2654 24.8641 21.0406 23.7146 19.4714 23.3794C17.963 23.0589 16.263 23.5267 15.2887 24.7646C14.5133 25.7501 14.3033 27.7377 15.7712 28.2424C16.204 28.3916 17.0347 28.3787 17.2226 27.839C17.2336 27.8095 17.2741 27.7708 17.276 27.7671C17.6664 27.1077 16.7382 27.9366 17.3239 27.7156C17.7069 27.57 17.3662 27.9053 17.6738 27.6161C17.8801 27.4227 17.8414 26.8572 17.5136 26.7872C19.3259 27.174 18.5597 29.9555 16.7474 29.5668L16.7455 29.5687Z" fill="white"/>
<path d="M34.5521 60.5926C34.5742 60.7252 34.6258 60.9058 34.7381 60.7971C34.902 60.6387 34.8873 60.3734 34.7602 60.1818C34.169 59.2829 32.8742 60.0879 32.4414 60.7216C31.8391 61.6021 31.8207 62.8215 32.2351 63.7867C32.7287 64.9362 33.8375 65.6362 35.0162 65.9125C37.604 66.5203 40.0885 64.7465 41.2912 62.5618C42.5418 60.2905 42.5823 57.3285 41.4533 54.9983C40.3206 52.6607 38.1307 51.0526 35.6332 50.4318C33.121 49.8074 30.5591 50.3545 28.4245 51.7857C26.1369 53.3202 24.8864 55.6541 24.1902 58.255C23.4479 61.0292 23.3337 63.7665 24.2362 66.513C25.0171 68.8948 26.5053 71.1329 28.5294 72.636C29.4853 73.347 30.5536 73.8996 31.6089 74.2846C32.073 74.4541 32.5464 74.5996 33.0271 74.7157C33.2481 74.7691 33.471 74.817 33.6957 74.8575C33.8209 74.8814 33.9462 74.9017 34.0732 74.922C34.1745 74.9367 34.1745 74.9385 34.0732 74.9256C34.1782 74.9385 34.2814 74.9514 34.3863 74.9625C36.9906 75.248 39.6373 75.108 42.2545 75.108H60.619C65.8553 75.108 71.0988 75.0288 76.3351 75.108C76.4253 75.108 76.5137 75.108 76.604 75.108C78.4586 75.108 78.4623 77.9908 76.604 77.9908H41.1531C39.4605 77.9908 37.766 78.0221 36.0753 77.9595C33.5262 77.8674 31.1393 77.3572 28.8481 76.2096C26.043 74.8041 23.7629 72.3578 22.3871 69.5542C20.8528 66.4282 20.3961 63.0849 20.9468 59.6569C21.4809 56.3283 22.7094 53.0568 25.2032 50.7008C27.5625 48.4719 30.7764 47.1217 34.0456 47.3003C37.2319 47.4753 40.4182 48.9048 42.4902 51.3676C44.7022 53.9962 45.5292 57.4482 44.9269 60.8137C44.321 64.1975 41.9653 67.2074 38.7293 68.4232C35.5761 69.6076 31.4726 68.5282 29.8371 65.4243C28.2384 62.3886 29.3232 57.824 33.0418 57.0209C34.8615 56.6267 36.8801 57.5311 37.5358 59.3345C38.127 60.9629 37.2927 63.0057 35.5946 63.5454C34.0143 64.0483 32.0602 63.0536 31.7728 61.3552C31.6439 60.5889 31.9754 59.8024 32.7803 59.5813C33.471 59.3916 34.4232 59.8171 34.5539 60.5889L34.5521 60.5926Z" fill="white"/>
<path d="M51.2148 60.4968C51.1816 60.3439 50.9182 60.2132 50.7801 60.2021C50.2404 60.1597 50.386 60.425 50.2883 60.6866C50.1778 60.9813 50.7543 60.5337 50.2441 60.751C49.7616 60.9555 49.6032 61.5229 49.6934 62.0128C49.9163 63.2341 51.4229 63.5602 52.4303 63.1789C55.3146 62.0847 55.287 58.0045 53.2499 56.1643C51.0821 54.2062 47.7025 54.7846 46.0191 57.0596C45.1184 58.2753 44.7132 59.9811 44.6414 61.4713C44.5677 63.0112 45.0411 64.5254 45.8791 65.8093C46.6103 66.9293 47.7632 67.8282 48.9254 68.2777C50.1336 68.7456 50.9919 68.7787 52.2701 68.7953C53.471 68.81 54.6736 68.7971 55.8745 68.7971H75.9372C77.7919 68.7971 77.7955 71.6799 75.9372 71.6799H65.5255C61.8253 71.6799 58.127 71.6799 54.4269 71.6799C52.8853 71.6799 51.3363 71.7297 49.8076 71.4939C48.0487 71.2231 46.3672 70.385 45.0392 69.2116C41.724 66.279 41.0794 61.5505 42.5546 57.533C44.0318 53.5136 48.5294 50.955 52.6882 52.5557C54.751 53.3497 56.3681 54.8509 57.1527 56.9361C57.9042 58.9311 57.7034 61.335 56.6038 63.166C55.4877 65.0228 53.3697 66.4135 51.1448 66.1961C48.8241 65.9696 46.9436 64.2933 46.8 61.906C46.6637 59.6237 48.7854 57.2401 51.1816 58.0008C52.3051 58.3582 53.145 59.3824 53.1394 60.5797C53.1339 61.8378 52.1559 63.0297 50.8593 63.0702C49.7487 63.1052 48.6694 62.372 48.4318 61.2576C48.045 59.4487 50.8225 58.675 51.2111 60.4913L51.2148 60.4968Z" fill="white"/>
<path d="M24.9914 53.3883C24.9914 53.3883 14.0125 63.2728 17.5745 76.3643C17.5745 76.3643 10.9772 73.638 13.3863 66.7911L12.8577 68.0087C10.6402 74.3564 2.99305 74.3417 2.99305 74.3417C3.38535 64.9048 10.4947 63.9009 10.4947 63.9009C3.65057 66.3177 0.919189 59.7213 0.919189 59.7213C14.6995 63.8235 23.8864 52.2849 23.8864 52.2849L24.9914 53.3901V53.3883Z" fill="white"/>
</g>
<defs>
<clipPath id="clip0_5397_166">
<rect width="78" height="78" fill="white" transform="matrix(1 0 0 -1 0 78)"/>
</clipPath>
</defs>
</svg>
